<?xml version="1.0" encoding="UTF-8"?>
<svg xmlns="http://www.w3.org/2000/svg" xmlns:xlink="http://www.w3.org/1999/xlink" width="1313px" height="250px" viewBox="0 0 1313 250" version="1.1">
<g id="surface1">
<path style=" stroke:none;fill-rule:nonzero;fill:rgb(77.647059%,77.647059%,77.647059%);fill-opacity:1;" d="M 1162.226562 210.246094 C 1162.226562 188.242188 914.257812 170.40625 608.390625 170.40625 C 302.503906 170.40625 54.550781 188.242188 54.550781 210.246094 C 54.550781 232.25 302.503906 250.085938 608.390625 250.085938 C 914.257812 250.085938 1162.226562 232.25 1162.226562 210.246094 Z M 1162.226562 210.246094 "/>
<path style=" stroke:none;fill-rule:nonzero;fill:rgb(0%,0%,0%);fill-opacity:1;" d="M 451.933594 0.00390625 C 225.335938 0.386719 -24.25 42.484375 4.40625 105.140625 C 13.605469 125.257812 44.042969 136.867188 115.980469 144.5 C 193.605469 152.738281 237.914062 171.667969 223.753906 200.75 C 202.515625 203.179688 186.539062 206.242188 182.839844 210.71875 C 198.949219 210.632812 214.808594 210.5625 231.152344 212.878906 C 274.640625 219.042969 298.082031 226.507812 323.054688 238.636719 C 326.71875 240.414062 340.578125 240.054688 340.828125 237.105469 C 341.199219 232.886719 336.859375 228.410156 329.664062 223.691406 C 323.339844 219.550781 336.203125 219.714844 344.445312 220.652344 C 358.132812 222.203125 379.386719 225.347656 409.4375 227.171875 C 420.972656 227.875 422.25 225.242188 420.605469 223.691406 C 416.617188 219.945312 397.0625 218.28125 368.171875 214.117188 C 357.863281 212.628906 366.1875 209.265625 379.21875 209.957031 L 422.503906 211.160156 C 429.683594 211.539062 432.242188 208.113281 424.386719 207.238281 C 394.019531 203.847656 362.589844 202.207031 309.199219 203.355469 C 284.359375 188.78125 245.449219 172.667969 275.683594 162.675781 C 302.707031 153.742188 342.441406 152.347656 359.394531 184.332031 C 348.699219 185.882812 335.414062 186.839844 335.160156 190.820312 C 350.566406 189.402344 359.125 190.121094 366.792969 190.820312 C 405.097656 194.304688 442.617188 201.6875 480.082031 209.398438 C 488.085938 211.042969 498.074219 208.542969 495.03125 206.394531 C 490.457031 203.160156 477.8125 201.085938 463.402344 196.425781 C 456.488281 194.1875 474.164062 192.917969 486.691406 193.003906 C 516.304688 193.199219 535.625 197.121094 561.910156 198.589844 C 571.496094 199.125 582.746094 197.609375 576.707031 195.144531 C 569.273438 192.113281 548.859375 190.601562 535.691406 188.464844 C 526.359375 186.957031 529.21875 184.914062 541.445312 185.175781 C 549.800781 185.355469 559.589844 186.308594 571.191406 186.058594 C 592.464844 185.597656 587.6875 182.488281 569.308594 181.292969 C 528.597656 178.652344 484 178.148438 437.4375 178.691406 C 343.703125 174.527344 369.972656 136.417969 437.4375 133.6875 C 500.683594 131.132812 572.082031 127.046875 651.117188 117.675781 C 720.988281 114.972656 789.765625 111.476562 849.867188 100.816406 C 952.730469 93.613281 1089.160156 108.84375 1286.617188 175.367188 C 1295.007812 178.195312 1320.433594 180.316406 1306.980469 172.203125 C 1272.996094 151.722656 1161.183594 125.726562 1109.960938 106.425781 C 1057.414062 86.617188 1079.308594 75.925781 1024.519531 60.984375 C 978.914062 48.542969 922.949219 48.132812 859.152344 52.335938 C 808.972656 55.640625 775.253906 48.789062 745.859375 36.761719 C 683.050781 11.054688 570.621094 -0.199219 451.933594 0.00390625 Z M 955.304688 68.566406 C 968.386719 68.566406 979.066406 71.015625 979.066406 74.066406 C 979.066406 77.113281 968.386719 79.597656 955.304688 79.597656 C 942.222656 79.597656 931.695312 77.109375 931.695312 74.066406 C 931.695312 71.015625 942.222656 68.566406 955.304688 68.566406 Z M 955.304688 68.566406 "/>
</g>
</svg>
